# Blender v2.93.2 OBJ File: ''
# www.blender.org
mtllib small-LR.mtl
o Plantain.001
v -1.621837 1.214933 -2.955505
v -2.975784 0.673871 -0.749263
v -0.941102 0.318154 -0.421318
v -1.355113 0.392825 -0.633643
v -0.684272 0.459840 -1.392096
v -0.593360 0.232353 0.669669
v -0.422894 0.232353 0.561774
v -2.953515 1.774092 -3.076812
v -3.177307 1.571967 -2.618840
v 1.369493 1.191166 2.233658
v 1.311060 0.883585 0.318068
v 0.013285 0.369824 0.957017
v 0.337855 0.481614 0.914755
v 0.250261 0.477328 1.654389
v -0.637803 0.224165 0.442026
v -0.693490 0.207637 0.578229
v 2.142974 1.757571 1.772541
v 2.107121 1.622397 1.395154
v 0.723539 1.426271 0.192878
v -0.032683 0.765423 0.110682
v -0.715145 0.228743 0.526956
v -0.464582 0.326599 0.432772
v 0.038502 0.444608 0.735911
v -0.762204 0.799007 -0.007689
v 1.028432 2.034717 0.127489
v 0.874143 1.840049 0.065829
v 0.295478 1.552736 -0.203480
v -0.608856 0.200124 0.607011
v -1.768822 1.440745 -1.289954
v -1.607251 0.598627 -0.162597
v -0.659619 0.262319 0.615489
v -0.930585 0.350021 0.248019
v -0.658897 0.675892 -0.416005
v -1.679406 0.384680 0.775347
v -2.803973 1.834213 -1.075575
v -2.657634 1.603250 -0.951588
v -2.867358 1.151676 -0.024759
v -0.570022 0.266946 0.479342
v 2.629829 0.467236 -0.436942
v 0.325002 0.336590 -1.728492
v -0.041195 0.252446 0.330401
v 0.176682 0.269998 -0.087124
v 0.941420 0.285800 0.579739
v -0.623133 0.237621 0.419384
v -0.515239 0.237620 0.589849
v 2.890065 0.605825 -1.856554
v 2.377999 0.555294 -2.046109
v -3.282876 0.584111 1.025478
v -1.106991 0.388597 2.516923
v -0.565667 0.262490 0.499291
v -0.818682 0.288807 0.896020
v -0.459297 0.260785 0.636065
v -1.521910 0.312496 0.164795
v -3.655005 0.791126 2.411403
v -3.165647 0.715692 2.647056
vt 0.411690 0.919593
vt 0.166228 0.561019
vt 0.853846 0.797328
vt 0.537322 0.088735
vt 0.597013 0.088735
vt 0.623023 0.296740
vt 0.553115 0.372999
vt 0.623023 0.296740
vt 0.840850 0.427224
vt 0.553115 0.372999
vt 0.411690 0.919593
vt 0.853846 0.797328
vt 0.540110 0.982266
vt 0.540110 0.982266
vt 0.166228 0.561019
vt 0.840850 0.427224
vt 0.267014 0.793219
vt 0.323909 0.417178
vt 0.565311 0.561418
vt 0.537322 0.088735
vt 0.597013 0.088735
vt 0.623023 0.296740
vt 0.840850 0.427224
vt 0.553115 0.372999
vt 0.541736 0.923702
vt 0.540110 0.982266
vt 0.840850 0.427224
vt 0.601073 0.369289
vt 0.853846 0.797328
vt 0.572621 0.290804
vt 0.623023 0.296740
vt 0.840850 0.427224
vt 0.853846 0.797328
vt 0.565311 0.561418
vt 0.411690 0.919593
vt 0.166228 0.561019
vt 0.853846 0.797328
vt 0.540110 0.982266
vt 0.267014 0.793219
vt 0.541736 0.923702
vt 0.323909 0.417178
vt 0.601073 0.369289
vt 0.572621 0.290804
vt 0.623023 0.296740
vt 0.411690 0.919593
vt 0.166228 0.561019
vt 0.853846 0.797328
vt 0.537322 0.088735
vt 0.597013 0.088735
vt 0.840850 0.427224
vt 0.553115 0.372999
vt 0.623023 0.296740
vt 0.540110 0.982266
vt 0.540110 0.982266
vt 0.572621 0.290804
vn -0.6181 0.7722 -0.1466
vn -0.5113 0.8531 -0.1035
vn -0.5551 0.8216 -0.1300
vn 0.0592 0.9965 0.0595
vn 0.0413 0.9970 0.0652
vn 0.1343 0.9880 0.0763
vn 0.1341 0.9752 0.1759
vn -0.3134 0.9474 0.0648
vn -0.4361 0.8958 -0.0857
vn -0.3672 0.9300 -0.0167
vn 0.2900 0.8517 0.4365
vn 0.2399 0.8916 0.3840
vn 0.2953 0.8123 0.5028
vn -0.6536 0.7301 -0.1994
vn 0.2143 0.9174 0.3351
vn 0.1562 0.9487 0.2748
vn -0.4462 0.4501 0.7735
vn -0.1736 0.6246 0.7614
vn -0.3712 0.6167 0.6942
vn -0.2457 0.9687 0.0366
vn -0.2347 0.9718 0.0219
vn -0.0273 0.9993 0.0264
vn -0.0652 0.9972 0.0371
vn -0.0437 0.9986 0.0305
vn -0.6070 0.2948 0.7380
vn -0.6409 0.2819 0.7139
vn -0.4278 0.7440 0.5132
vn -0.2258 0.7910 0.5685
vn -0.5600 0.5057 0.6562
vn -0.0706 0.7796 0.6222
vn -0.2445 0.8697 0.4288
vn 0.0814 0.8804 0.4671
vn 0.2989 0.7794 0.5505
vn 0.2473 0.8756 0.4150
vn -0.1072 0.9917 0.0710
vn -0.0804 0.9954 0.0514
vn -0.0930 0.9940 0.0581
vn 0.4968 0.6333 0.5933
vn 0.4085 0.8062 0.4279
vn 0.4698 0.6863 0.5552
vn 0.2562 0.9314 0.2583
vn 0.0797 0.9500 0.3017
vn 0.1414 0.9814 0.1299
vn 0.0711 0.9689 0.2370
vn 0.1689 0.9813 -0.0918
vn 0.1267 0.9897 -0.0662
vn 0.1462 0.9864 -0.0745
vn -0.0226 0.9995 0.0190
vn -0.0232 0.9996 0.0147
vn 0.1022 0.9936 -0.0469
vn 0.0725 0.9966 -0.0384
vn 0.0587 0.9978 -0.0287
vn -0.1249 0.9894 0.0737
vn 0.1954 0.9763 -0.0933
vn 0.0555 0.9980 -0.0308
usemtl Material__664
s 1
f 18/1/1 11/2/2 10/3/3
f 6/4/4 7/5/5 3/6/6
f 4/7/7 6/4/4 3/6/6
f 12/8/8 14/9/9 13/10/10
f 9/11/11 1/12/12 8/13/13
f 18/1/1 10/3/3 17/14/14
f 2/15/15 5/16/16 1/12/12
f 27/17/17 24/18/18 20/19/19
f 15/20/20 16/21/21 12/8/8
f 15/20/20 12/8/8 13/10/10
f 11/2/2 13/10/10 14/9/9
f 41/22/22 43/23/23 42/24/24
f 11/2/2 14/9/9 10/3/3
f 27/17/17 26/25/25 25/26/26
f 23/27/27 20/19/19 24/18/18 22/28/28
f 19/29/29 25/26/26 26/25/25
f 27/17/17 20/19/19 19/29/29 26/25/25
f 21/30/30 28/31/31 22/28/28
f 24/18/18 21/30/30 22/28/28
f 28/31/31 23/27/27 22/28/28
f 33/32/32 29/33/33 30/34/34
f 47/35/35 40/36/36 39/37/37
f 35/38/38 37/39/39 36/40/40
f 34/41/41 32/42/42 33/32/32 30/34/34
f 35/38/38 36/40/40 29/33/33
f 36/40/40 37/39/39 30/34/34 29/33/33
f 34/41/41 31/43/43 32/42/42
f 38/44/44 33/32/32 32/42/42
f 37/39/39 34/41/41 30/34/34
f 38/44/44 32/42/42 31/43/43
f 40/36/36 42/24/24 43/23/23
f 55/45/45 49/46/46 48/47/47
f 44/48/48 45/49/49 41/22/22
f 44/48/48 41/22/22 42/24/24
f 53/50/50 51/51/51 50/52/52
f 47/35/35 39/37/37 46/53/53
f 55/45/45 48/47/47 54/54/54
f 40/36/36 43/23/23 39/37/37
f 49/46/46 51/51/51 53/50/50
f 52/55/55 50/52/52 51/51/51
f 49/46/46 53/50/50 48/47/47
f 2/15/15 4/7/7 5/16/16
f 9/11/11 2/15/15 1/12/12
f 3/6/6 5/16/16 4/7/7
f 23/27/27 19/29/29 20/19/19
